<svg width="33" height="33" viewBox="0 0 33 33" fill="none" xmlns="http://www.w3.org/2000/svg">
<path d="M28.6302 9.6123C28.011 10.4383 27.2624 11.1589 26.4135 11.7461C26.4135 11.9619 26.4135 12.1777 26.4135 12.4054C26.4203 16.3239 24.8551 20.0812 22.0688 22.8351C19.2824 25.589 15.508 27.109 11.5918 27.0543C9.32774 27.0619 7.09265 26.545 5.06165 25.5439C4.95213 25.496 4.88151 25.3878 4.88192 25.2682V25.1363C4.88192 24.9642 5.0214 24.8247 5.19345 24.8247C7.41899 24.7512 9.56512 23.9796 11.3282 22.619C9.3138 22.5783 7.50135 21.385 6.66723 19.55C6.62511 19.4499 6.63821 19.3348 6.70185 19.2467C6.76548 19.1586 6.87043 19.11 6.97876 19.1186C7.59099 19.18 8.20933 19.1231 8.80003 18.9507C6.57628 18.4891 4.90537 16.643 4.66624 14.3834C4.65775 14.275 4.70632 14.17 4.79443 14.1063C4.88252 14.0427 4.99741 14.0295 5.0976 14.0718C5.69435 14.3351 6.33855 14.4738 6.99075 14.4792C5.04221 13.2004 4.20057 10.7678 4.94183 8.55739C5.01835 8.3426 5.20217 8.18392 5.42576 8.13968C5.64933 8.09543 5.87971 8.17214 6.03219 8.34162C8.66161 11.1401 12.2745 12.8077 16.109 12.9928C16.0108 12.6009 15.9626 12.1981 15.9652 11.7941C16.0011 9.67539 17.312 7.78804 19.2843 7.01559C21.2564 6.24315 23.4996 6.73847 24.9638 8.26968C25.9616 8.07956 26.9264 7.74436 27.8274 7.27471C27.8934 7.23351 27.9771 7.23351 28.0431 7.27471C28.0843 7.34074 28.0843 7.42446 28.0431 7.49048C27.6067 8.48979 26.8695 9.32792 25.9343 9.88802C26.7532 9.79304 27.5578 9.59986 28.3307 9.31262C28.3958 9.26832 28.4812 9.26832 28.5463 9.31262C28.6008 9.33755 28.6416 9.38524 28.6578 9.44299C28.6739 9.50074 28.6638 9.56267 28.6302 9.6123Z" fill="black"/>
</svg>
